# AST/ASF file generated using VICON BodyLanguage
# -----------------------------------------------
:version 1.10
:name VICON
:units
  mass 1.0
  length 0.45
  angle deg
:documentation
   .ast/.asf automatically generated from VICON data using
   VICON BodyBuilder and BodyLanguage model FoxedUp or BRILLIANT.MOD
:root
   order TX TY TZ RX RY RZ
   axis XYZ
   position 0 0 0  
   orientation 0 0 0 
:bonedata
  begin
     id 1 
     name lhipjoint
     direction 0.707368 -0.647095 0.284426 
     length 2.60678 
     axis 0 0 0  XYZ
  end
  begin
     id 2 
     name lfemur
     direction 0.34202 -0.939693 0  
     length 6.63812  
     axis 0 0 20  XYZ
    dof rx ry rz
    limits (-160.0 20.0)
           (-70.0 70.0)
           (-60.0 70.0)
  end
  begin
     id 3 
     name ltibia
     direction 0.34202 -0.939693 0   
     length 7.51178   
     axis 0 0 20   XYZ
    dof rx
    limits (-10.0 170.0)
  end
  begin
     id 4 
     name lfoot
     direction 0.121251 -0.333133 0.935051   
     length 1.83716   
     axis -90 7.62852e-016 20   XYZ
    dof rx rz
    limits (-45.0 90.0)
           (-70.0 20.0)
  end
  begin
     id 5 
     name ltoes
     direction 1.53611e-011 -4.21962e-011 1   
     length 0.916133   
     axis -90 7.62852e-016 20   XYZ
    dof rx
    limits (-90.0 20.0)
  end
  begin
     id 6 
     name rhipjoint
     direction -0.692419 -0.660507 0.290321   
     length 2.55385  
     axis 0 0 0  XYZ 
  end
  begin
     id 7 
     name rfemur
     direction -0.34202 -0.939693 0   
     length 7.29079   
     axis 0 0 -20   XYZ
    dof rx ry rz
    limits (-160.0 20.0)
           (-70.0 70.0)
           (-70.0 60.0)
  end
  begin
     id 8 
     name rtibia
     direction -0.34202 -0.939693 0   
     length 7.47143   
     axis 0 0 -20   XYZ
    dof rx
    limits (-10.0 170.0)
 end
 begin
     id 9 
     name rfoot
     direction -0.119907 -0.329441 0.936532   
     length 1.79439  
     axis -90 -7.62852e-016 -20   XYZ
    dof rx rz
    limits (-45.0 90.0)
           (-20.0 70.0)
  end
  begin
     id 10 
     name rtoes
     direction -1.53571e-011 -4.21961e-011 1   
     length 0.896039   
     axis -90 -7.62852e-016 -20   XYZ
    dof rx
    limits (-90.0 20.0)
  end
  begin
     id 11 
     name lowerback
     direction 0.0367721 0.992912 -0.113016   
     length 1.73542   
     axis 0 0 0   XYZ
    dof rx ry rz
    limits (-20.0 45.0)
           (-30.0 30.0)
           (-30.0 30.0)
  end
  begin
     id 12 
     name upperback
     direction -0.000314626 0.990678 0.136227   
     length 1.7514   
     axis 0 0 0   XYZ
    dof rx ry rz
    limits (-20.0 45.0)
           (-30.0 30.0)
           (-30.0 30.0)
  end
  begin
     id 13 
     name thorax
     direction -0.0226159 0.981151 0.191917   
     length 1.71471   
     axis 0 0 0   XYZ
    dof rx ry rz
    limits (-20.0 45.0)
           (-30.0 30.0)
           (-30.0 30.0)
  end
  begin
     id 14 
     name lowerneck
     direction 0.0219333 0.998071 0.0580739   
     length 1.65882   
     axis 0 0 0   XYZ
    dof rx ry rz
    limits (-20.0 45.0)
           (-30.0 30.0)
           (-30.0 30.0)
  end
  begin
     id 15 
     name upperneck
     direction 0.0384529 0.980058 -0.194957   
     length 1.6612   
     axis 0 0 0   XYZ
    dof rx ry rz
    limits (-20.0 45.0)
           (-30.0 30.0)
           (-30.0 30.0)
  end
  begin
     id 16
     name head
     direction 0.00592123 0.997421 -0.0715234  
     length 1.68077  
     axis 0 0 0   XYZ
    dof rx ry rz
    limits (-20.0 45.0)
           (-30.0 30.0)
           (-30.0 30.0)
  end
  begin
     id 17 
     name lclavicle
     direction 0.904803 0.417826 0.0821728  
     length 3.42227  
     axis 0 0 0   XYZ
    dof ry rz
    limits (-20.0 10.0)
           (0.0 20.0)
  end
  begin
     id 18 
     name lhumerus
     direction 1 -4.48965e-011 -2.68786e-027   
     length 5.11878   
     axis -180 -30 -90   XYZ
    dof rx ry rz
    limits (-60.0 90.0)
           (-90.0 90.0)
           (-90.0 90.0)
  end
  begin
     id 19
     name lradius
     direction 1 -4.48965e-011 2.61168e-028   
     length 3.59971   
     axis -180 -30 -90   XYZ
    dof rx
    limits (-10.0 170.0)
  end
  begin
     id 20
     name lwrist
     direction 1 -4.48965e-011 1.58672e-027   
     length 1.79985   
     axis -1.65735e-015 90 90   XYZ
    dof ry
    limits (-180.0 0.0)
 end
  begin
     id 21 
     name lhand
     direction 1 -4.48942e-011 3.17344e-027   
     length 0.62877   
     axis -2.02492e-015 90 90   XYZ
    dof rx rz
    limits (-90.0 90.0)
           (-45.0 45.0)
  end
  begin
     id 22 
     name lfingers
     direction 1 -4.49011e-011 6.34687e-027   
     length 0.506931   
     axis -4.04985e-015 90 90   XYZ
    dof rx
    limits (0.0 90.0)
  end
  begin
     id 23
     name lthumb
     direction 0.707107 -6.34982e-011 0.707107   
     length 0.727854   
     axis -90 45 2.85299e-015   XYZ
    dof rx rz
    limits (-45.0 45.0)
           (-45.0 45.0)
  end
  begin
     id 24 
     name rclavicle
     direction -0.945647 0.32488 0.0143075   
     length 3.52737  
     axis 0 0 0   XYZ 
    dof ry rz
    limits (-10.0 20.0)
           (-20.0 0.0)
  end
  begin
     id 25 
     name rhumerus
     direction -1 -4.48962e-011 1.92182e-027  
     length 5.4902   
     axis -180 30 90   XYZ
    dof rx ry rz
    limits (-90.0 60.0)
           (-90.0 90.0)
           (-90.0 90.0)
  end
  begin
     id 26 
     name rradius
     direction -1 -4.48967e-011 -5.97193e-028   
     length 3.20659   
     axis -180 30 90   XYZ
    dof rx
    limits (-10.0 170.0)
  end
  begin
     id 27 
     name rwrist
     direction -1 -4.48964e-011 1.58672e-027   
     length 1.6033   
     axis -1.65735e-015 -90 -90   XYZ
    dof ry
    limits (-180.0 0.0)
  end
  begin
     id 28
     name rhand
     direction -1 -4.49006e-011 3.17344e-027   
     length 0.691885   
     axis -2.02492e-015 -90 -90   XYZ
    dof rx rz
    limits (-90.0 90.0)
           (-45.0 45.0)
  end
  begin
     id 29
     name rfingers
     direction -1 -4.48908e-011 6.34687e-027   
     length 0.557815   
     axis -4.04985e-015 -90 -90   XYZ
    dof rx
    limits (0.0 90.0)
  end
  begin
     id 30
     name rthumb
     direction -0.707107 -6.34999e-011 0.707107   
     length 0.800915   
     axis -90 -45 -2.85299e-015   XYZ
    dof rx rz
    limits (-45.0 45.0)
           (-45.0 45.0)
  end
:hierarchy
  begin
    root lhipjoint rhipjoint lowerback
    lhipjoint lfemur
    lfemur ltibia
    ltibia lfoot
    lfoot ltoes
    rhipjoint rfemur
    rfemur rtibia
    rtibia rfoot
    rfoot rtoes
    lowerback upperback
    upperback thorax
    thorax lowerneck lclavicle rclavicle
    lowerneck upperneck
    upperneck head
    lclavicle lhumerus
    lhumerus lradius
    lradius lwrist
    lwrist lhand lthumb
    lhand lfingers
    rclavicle rhumerus
    rhumerus rradius
    rradius rwrist
    rwrist rhand rthumb
    rhand rfingers
  end

#!OML:ASF I:\Actors\actors\Patient Classification 1\Patient 1\Session 1\Subject1.ASF
:FULLY-SPECIFIED
:DEGREES
99
root 0.659679 17.4785 9.84989 12.9615 -0.863402 -10.8407
lowerback -1.80288 0.641899 8.47393
upperback -12.2933 1.4651 1.84707
thorax -12.1965 -0.051788 -2.81828
lowerneck -4.75882 -10.9265 -9.72489
upperneck 16.8337 -16.3426 12.3916
head 7.79089 -7.61594 4.08569
rclavicle -2.8625e-014 3.97569e-014
rhumerus -47.9907 -20.521 -70.3009
rradius 25.2523
rwrist 40.2113
rhand 8.41202 -30.7699
rfingers 7.12502
rthumb 33.6187 -57.6375
lclavicle -2.8625e-014 3.97569e-014
lhumerus -50.8989 19.0429 71.3683
lradius 25.469
lwrist -20.6326
lhand -17.9577 -7.16956
lfingers 7.12502
lthumb 8.31112 22.6469
rfemur -4.59246 27.8854 27.1606
rtibia -0.270532
rfoot -10.7794 -26.5809
rtoes 2.28597
lfemur 8.1202 -55.8161 -12.5708
ltibia -5.49778
lfoot -37.8584 60.8078
ltoes 18.6631
100
root 0.658371 17.478 9.84955 12.9583 -0.889882 -10.8316
lowerback -1.80935 0.698724 8.44753
upperback -12.2817 1.53406 1.78829
thorax -12.1683 -0.0179322 -2.87378
lowerneck -4.74911 -10.9695 -9.63547
upperneck 16.7527 -16.413 12.4416
head 7.768 -7.64281 4.08044
rclavicle -2.11706e-014 2.22639e-014
rhumerus -48.045 -20.695 -70.2562
rradius 25.2324
rwrist 40.3219
rhand 8.36643 -30.7018
rfingers 7.12502
rthumb 33.5754 -57.5789
lclavicle -2.11706e-014 2.22639e-014
lhumerus -50.7935 18.9642 71.3443
lradius 25.393
lwrist -20.7297
lhand -17.9345 -7.2035
lfingers 7.12502
lthumb 8.33355 22.6121
rfemur -4.5912 27.9155 27.1533
rtibia -0.263782
rfoot -10.7575 -26.5871
rtoes 2.19635
lfemur 8.16296 -55.8501 -12.618
ltibia -5.49777
lfoot -37.7444 60.9085
ltoes 18.4585
101
root 0.65134 17.4827 9.8517 13.0461 -1.03161 -10.3993
lowerback -1.95501 0.705443 7.84148
upperback -12.3109 1.48961 1.69051
thorax -12.1074 0.0186266 -2.64052
lowerneck -4.73036 -10.9604 -9.56329
upperneck 16.7336 -16.4065 12.4406
head 7.75125 -7.63693 4.07146
rclavicle -4.77083e-015 -6.36111e-015
rhumerus -48.0924 -20.7737 -70.2011
rradius 25.1664
rwrist 40.5454
rhand 8.2625 -30.5472
rfingers 7.12502
rthumb 33.4766 -57.4456
lclavicle -4.77083e-015 -6.36111e-015
lhumerus -50.8176 18.9811 71.2599
lradius 25.3646
lwrist -20.785
lhand -17.8884 -7.28024
lfingers 7.12502
lthumb 8.37806 22.5336
rfemur -4.72356 28.207 26.5794
rtibia -0.247788
rfoot -10.8915 -26.7986
rtoes 2.64579
lfemur 8.06396 -56.126 -13.0679
ltibia -5.395
lfoot -38.2716 61.0946
ltoes 18.655
102
root 0.645975 17.4874 9.85358 13.1513 -1.15044 -9.99166
lowerback -2.11297 0.663654 7.28111
upperback -12.3544 1.38893 1.65783
thorax -12.0651 0.0261855 -2.35635
lowerneck -4.73142 -10.9135 -9.61808
upperneck 16.7882 -16.339 12.4263
head 7.76451 -7.60782 4.08342
rclavicle -7.55382e-015 7.55382e-015
rhumerus -48.0709 -20.656 -70.1908
rradius 25.0998
rwrist 40.628
rhand 8.22541 -30.4989
rfingers 7.12502
rthumb 33.4413 -57.405
lclavicle -7.55382e-015 7.55382e-015
lhumerus -50.9427 19.1261 71.1753
lradius 25.3678
lwrist -20.7872
lhand -17.9101 -7.30609
lfingers 7.12502
lthumb 8.35712 22.5086
rfemur -4.88287 28.4443 26.0172
rtibia -0.244828
rfoot -10.9764 -26.9745
rtoes 2.87558
lfemur 7.9189 -56.4293 -13.4571
ltibia -5.28483
lfoot -39.0617 61.2148
ltoes 19.1398
103
root 0.650395 17.4833 9.85067 13.0192 -1.03801 -10.4373
lowerback -1.93979 0.56585 7.79899
upperback -12.3406 1.31876 1.88315
thorax -12.1754 -0.0505628 -2.39267
lowerneck -4.66358 -10.7919 -9.79656
upperneck 16.8101 -16.1552 12.4225
head 7.75174 -7.5341 4.13671
rclavicle 2.18663e-015 -3.18055e-015
rhumerus -47.9857 -20.3119 -70.2383
rradius 25.0637
rwrist 40.6093
rhand 8.26814 -30.5544
rfingers 7.12502
rthumb 33.4819 -57.4517
lclavicle 2.18663e-015 -3.18055e-015
lhumerus -51.187 19.4896 71.0245
lradius 25.374
lwrist -20.8724
lhand -17.9728 -7.35953
lfingers 7.12502
lthumb 8.29654 22.4576
rfemur -4.68861 28.2445 26.6418
rtibia -0.258584
rfoot -10.9166 -26.8055
rtoes 2.60314
lfemur 8.14445 -56.16 -13.0803
ltibia -5.41544
lfoot -38.5327 61.0558
ltoes 18.9174
104
root 0.654357 17.4793 9.84747 12.8978 -0.923644 -10.8289
lowerback -1.75708 0.509147 8.28757
upperback -12.3332 1.2993 2.02586
thorax -12.2933 -0.105649 -2.50607
lowerneck -4.64109 -10.7121 -9.86554
upperneck 16.8598 -16.0381 12.3972
head 7.7531 -7.48432 4.1551
rclavicle -4.07509e-015 -2.10712e-014
rhumerus -47.9762 -20.1267 -70.2678
rradius 25.0597
rwrist 40.6123
rhand 8.28627 -30.5997
rfingers 7.12502
rthumb 33.4992 -57.4933
lclavicle -4.07509e-015 -2.10712e-014
lhumerus -51.3589 19.6729 70.9082
lradius 25.3836
lwrist -20.9585
lhand -18.0186 -7.48011
lfingers 7.12502
lthumb 8.2524 22.3387
rfemur -4.51255 28.064 27.1925
rtibia -0.274145
rfoot -10.871 -26.6791
rtoes 2.47295
lfemur 8.29389 -55.8236 -12.6937
ltibia -5.55121
lfoot -37.443 60.9778
ltoes 18.1862
